<svg width="24" height="24" viewBox="0 0 24 24" fill="#ADB4BB" xmlns="http://www.w3.org/2000/svg">
<path d="M21.7558 11.4107L12.5891 2.24399C12.4328 2.08776 12.2209 2 11.9999 2C11.7789 2 11.567 2.08776 11.4107 2.24399L2.24396 11.4107C2.12745 11.5273 2.04811 11.6758 2.01597 11.8374C1.98383 11.999 2.00034 12.1665 2.06339 12.3188C2.12645 12.471 2.23324 12.6012 2.37025 12.6928C2.50726 12.7843 2.66834 12.8332 2.83313 12.8333H3.87481C3.93006 12.8333 3.98305 12.8552 4.02212 12.8943C4.06119 12.9333 4.08314 12.9863 4.08314 13.0416V21.1667C4.08314 21.3877 4.17094 21.5996 4.32722 21.7559C4.48351 21.9122 4.69547 22 4.91648 22H9.70819C9.76345 22 9.81644 21.9781 9.85551 21.939C9.89458 21.8999 9.91653 21.8469 9.91653 21.7917V17.8333C9.91653 17.2808 10.136 16.7508 10.5267 16.3601C10.9174 15.9694 11.4473 15.7499 11.9999 15.7499C12.5524 15.7499 13.0823 15.9694 13.473 16.3601C13.8637 16.7508 14.0832 17.2808 14.0832 17.8333V21.7917C14.0832 21.8469 14.1052 21.8999 14.1443 21.939C14.1833 21.9781 14.2363 22 14.2916 22H19.0833C19.3043 22 19.5163 21.9122 19.6725 21.7559C19.8288 21.5996 19.9166 21.3877 19.9166 21.1667V13.0416C19.9166 12.9863 19.9386 12.9333 19.9776 12.8943C20.0167 12.8552 20.0697 12.8333 20.125 12.8333H21.1666C21.3314 12.8332 21.4925 12.7843 21.6295 12.6928C21.7665 12.6012 21.8733 12.471 21.9364 12.3188C21.9994 12.1665 22.0159 11.999 21.9838 11.8374C21.9516 11.6758 21.8723 11.5273 21.7558 11.4107Z"/>
</svg>
