<svg width="24" height="24" viewBox="0 0 24 24" fill="#0666EB" xmlns="http://www.w3.org/2000/svg">
<path d="M20.0488 2H3.95122C3.43372 2 2.93742 2.20557 2.5715 2.5715C2.20557 2.93742 2 3.43372 2 3.95122V20.0488C2 20.5663 2.20557 21.0626 2.5715 21.4285C2.93742 21.7944 3.43372 22 3.95122 22H20.0488C20.5663 22 21.0626 21.7944 21.4285 21.4285C21.7944 21.0626 22 20.5663 22 20.0488V3.95122C22 3.43372 21.7944 2.93742 21.4285 2.5715C21.0626 2.20557 20.5663 2 20.0488 2V2ZM12.7317 16.6341C12.7317 16.7635 12.6803 16.8876 12.5888 16.9791C12.4974 17.0706 12.3733 17.122 12.2439 17.122H7.36585C7.23648 17.122 7.1124 17.0706 7.02092 16.9791C6.92944 16.8876 6.87805 16.7635 6.87805 16.6341V15.6585C6.87805 15.5292 6.92944 15.4051 7.02092 15.3136C7.1124 15.2221 7.23648 15.1707 7.36585 15.1707H12.2439C12.3733 15.1707 12.4974 15.2221 12.5888 15.3136C12.6803 15.4051 12.7317 15.5292 12.7317 15.6585V16.6341ZM17.6098 12.2439C17.6098 12.3733 17.5584 12.4974 17.4669 12.5888C17.3754 12.6803 17.2513 12.7317 17.122 12.7317H7.36585C7.23648 12.7317 7.1124 12.6803 7.02092 12.5888C6.92944 12.4974 6.87805 12.3733 6.87805 12.2439V11.2683C6.87805 11.1389 6.92944 11.0148 7.02092 10.9234C7.1124 10.8319 7.23648 10.7805 7.36585 10.7805H17.122C17.2513 10.7805 17.3754 10.8319 17.4669 10.9234C17.5584 11.0148 17.6098 11.1389 17.6098 11.2683V12.2439ZM17.6098 7.85366C17.6098 7.98303 17.5584 8.10711 17.4669 8.19859C17.3754 8.29007 17.2513 8.34146 17.122 8.34146H7.36585C7.23648 8.34146 7.1124 8.29007 7.02092 8.19859C6.92944 8.10711 6.87805 7.98303 6.87805 7.85366V6.87805C6.87805 6.74867 6.92944 6.6246 7.02092 6.53312C7.1124 6.44164 7.23648 6.39024 7.36585 6.39024H17.122C17.2513 6.39024 17.3754 6.44164 17.4669 6.53312C17.5584 6.6246 17.6098 6.74867 17.6098 6.87805V7.85366Z" />
</svg>
